<svg width="578" height="800" viewBox="0 0 578 800" fill="none" xmlns="http://www.w3.org/2000/svg">
<path d="M225.268 199.819C182.114 185.04 144.009 175.627 89.2601 158.803C110.293 -106.958 361.6 -1.41607 225.268 199.819ZM0.889728 443.954C3.72371 523.751 17.7788 628.427 129.734 612.025C182.215 598.329 220.992 540.691 239.23 441.249C249.247 386.573 243.422 309.827 231.606 263.822C220.818 231.402 224.487 233.395 212.892 227.238C168.014 217.128 123.586 205.937 78.3432 194.525C32.3817 226.982 -5.36646 399.298 0.889728 443.954ZM346.391 450.078C334.584 496.089 328.76 572.835 338.772 627.505C356.996 726.952 395.777 784.599 448.268 798.286C560.223 814.688 574.278 710.013 577.112 630.212C583.368 585.563 545.615 413.237 499.649 380.785C454.409 392.197 409.988 403.38 365.096 413.499C353.514 419.649 357.183 417.658 346.391 450.078ZM488.746 345.055C467.721 79.2966 216.414 184.839 352.743 386.07C395.897 371.29 433.999 361.879 488.746 345.055Z" fill="white"/>
</svg>
