<svg width="100" height="98" viewBox="0 0 100 98" fill="none" xmlns="http://www.w3.org/2000/svg">
<path d="M31.175 5.85849C21.0806 7.88445 16.0792 19.5222 14.8403 25.0879C13.9448 31.5212 13.6586 43.9346 14.4801 54.7058C15.1236 63.1444 13.148 73.049 11.3188 77.0615C18.1719 75.5048 20.7537 68.5216 23.2541 69.2886C25.2544 69.9022 23.9097 77.1124 22.9873 80.6408C27.9188 79.4094 32.1562 66.9884 32.8389 72.2288C33.3851 76.4211 41.6016 80.8624 45.6416 82.5591C43.8915 78.7292 45.7848 73.6082 47.5753 71.7182C51.2239 76.4963 59.4134 80.2281 62.427 81.3049C60.9825 76.4712 62.6435 71.6143 63.6546 69.7901C69.7851 72.4025 80.5864 72.5447 85.2207 72.2893C77.6547 69.6025 69.8983 62.2533 66.9658 58.9145C59.7774 52.5932 57.347 38.1269 57.0004 24.2997C56.6537 10.4726 43.793 3.32603 31.175 5.85849Z" fill="white" stroke="white"/>
<path d="M32.8419 6.36982C37.3567 5.01055 41.9716 5.81639 44.9852 6.89326C54.7321 10.7978 57.452 20.322 57.4171 24.4275C56.4815 31.0924 59.2569 42.8289 60.7615 47.8641C64.5765 59.2792 78.6572 68.9039 85.2207 72.2893C80.3031 74.0738 68.9872 71.7308 63.9439 70.3362C62.2306 72.3719 62.4116 78.861 62.7163 81.8511C57.8452 81.0886 50.4228 75.3359 47.3206 72.5548C44.6348 75.3898 45.5529 80.8549 46.3477 83.233C36.8833 79.598 32.9276 73.933 32.1328 71.5548C28.1225 78.7401 24.0021 80.7996 22.4432 80.9313C24.4809 74.2386 23.4701 70.5745 22.71 69.5791C19.502 73.1844 14.5417 75.4859 12.6062 76.3876C12.536 76.4245 12.4695 76.4556 12.4069 76.4806C12.4692 76.4514 12.5357 76.4204 12.6062 76.3876C14.8614 75.2001 20.873 67.9491 20.615 62.9908L19.5042 51.6734C19.5042 51.6734 17.2359 38.1715 17.6067 30.9675C17.9775 23.7634 19.5404 20.1266 22.3189 15.4906C25.0973 10.8546 28.3272 7.72908 32.8419 6.36982Z" fill="#AFAFAF" stroke="white"/>
<path d="M28.7679 21.9914C28.5706 22.6396 28.0959 23.1481 27.9092 23.7614C27.7758 24.1994 27.5227 25.1798 27.1777 25.4634" stroke="black" stroke-width="10" stroke-linecap="round"/>
<path d="M41.5963 22.93C41.4624 23.3698 41.7751 23.9146 41.856 24.3534C41.9795 25.0237 42.2966 25.6288 42.4402 26.2865C42.597 27.0044 42.9073 27.6211 42.926 28.3678" stroke="black" stroke-width="10" stroke-linecap="round"/>
<path d="M32.9547 39.7566C32.2215 42.1649 32.0011 44.7015 31.7528 47.2063C31.6637 48.1051 31.7403 49.0223 31.6717 49.9044C31.6524 50.1531 31.6604 50.4267 31.7477 50.6471C31.9116 51.0613 31.7738 50.8737 32.1172 50.7367C32.4517 50.6033 32.7353 49.5824 32.8378 49.2455C33.0584 48.521 33.1707 47.802 33.3959 47.0622C33.7477 45.9069 33.6662 44.6513 33.9514 43.487C34.1095 42.8415 34.3029 41.4855 33.7592 40.9666" stroke="black" stroke-width="10" stroke-linecap="round"/>
<path d="M39.3375 27.8842C39.2524 28.1678 39.4476 28.5535 39.5076 28.8302C39.5462 29.0077 39.6461 29.198 39.7162 29.3677C39.8414 29.6707 39.9567 29.9989 40.1326 30.2775C40.2452 30.4558 40.291 30.6661 40.4082 30.8409C40.5388 31.0356 40.6827 31.2244 40.7954 31.4305C41.1909 32.1537 41.7205 32.8634 42.3336 33.4146C43.0287 34.0395 43.7562 34.6298 44.5464 35.1301C45.062 35.4565 45.6479 35.8682 46.2369 36.0463" stroke="black" stroke-width="2" stroke-linecap="round"/>
<path d="M24.6973 31.7619C24.9895 31.8029 25.3393 31.5502 25.6025 31.4482C25.7714 31.3828 25.9434 31.2545 26.0997 31.1589C26.3788 30.9883 26.6843 30.8237 26.9316 30.6065C27.0899 30.4675 27.2899 30.3899 27.444 30.2468C27.6157 30.0874 27.7795 29.9157 27.9652 29.7723C28.6165 29.2692 29.2341 28.6352 29.6827 27.9426C30.1914 27.1573 30.661 26.3452 31.0324 25.4848C31.2748 24.9233 31.5903 24.2791 31.6753 23.6676" stroke="black" stroke-width="2" stroke-linecap="round"/>
<path d="M6.70974 2.62435C5.83601 3.03977 4.9278 3.60107 4.18945 4.22619C3.24984 5.0217 2.79361 5.82298 2.63738 7.01475C2.36126 9.12114 4.64625 10.5799 6.51513 10.6921C7.85207 10.7724 9.43042 9.98491 10.5632 9.35402C11.9811 8.56432 13.834 7.49946 14.6258 6.0136C14.8556 5.5824 15.197 4.71463 14.7669 4.29456C14.3577 3.8949 13.325 3.96201 12.7964 4.04061C12.2173 4.12672 11.7149 4.66807 11.3076 5.04664C10.6551 5.65303 9.96022 6.34279 9.40519 7.03917C8.8879 7.6882 8.3576 8.32852 8.11099 9.12937C7.94498 9.66847 8.02341 10.2896 8.02341 10.8484C8.02341 12.3304 9.26313 13.8001 10.5632 14.4525C11.1732 14.7587 12.0879 14.8684 12.7526 14.7016C13.0847 14.6183 14.0404 14.218 14.1539 13.8763" stroke="black" stroke-width="2" stroke-linecap="round"/>
</svg>
