<svg width="250" height="250" viewBox="0 0 250 250" fill="none" xmlns="http://www.w3.org/2000/svg">
<ellipse cx="125" cy="225" rx="113" ry="21" fill="#FF5C00"/>
<path fill-rule="evenodd" clip-rule="evenodd" d="M147.874 212.889C150.14 218.921 156.866 221.975 162.898 219.709C188.722 210.011 206.845 197.179 218.922 182.473C231.045 167.71 236.58 151.656 238.126 136.394C241.153 106.5 228.926 79.6938 221.7 69.2582C218.032 63.9608 210.765 62.6399 205.467 66.3079C200.17 69.9758 198.849 77.2437 202.517 82.5411C207.451 89.6667 217.243 111.024 214.911 134.043C213.778 145.238 209.79 156.827 200.89 167.665C191.944 178.559 177.546 189.283 154.694 197.866C148.662 200.131 145.609 206.857 147.874 212.889Z" fill="#FF5C00"/>
<path d="M78.5049 52.8283L79.6765 53.9998H81.3333H126.333H127.99L129.162 52.8283L154.565 27.4248C155.995 25.9946 158.435 26.615 159.008 28.5549L193.799 146.307C197.072 157.386 196.98 169.187 193.534 180.213C187.177 200.557 170.224 215.809 149.325 219.989L133.695 223.115C113.432 227.167 92.5677 227.167 72.305 223.115L56.4466 219.943C35.688 215.792 18.8498 200.642 12.5354 180.436C9.05165 169.288 9.0207 157.347 12.4466 146.181L48.5732 28.435C49.163 26.513 51.5866 25.91 53.0082 27.3316L78.5049 52.8283Z" fill="white" stroke="#FF5C00" stroke-width="8"/>
<path d="M57 192L69.8356 222M84 192V224" stroke="#FF5C00" stroke-width="8" stroke-linecap="round"/>
<path d="M151 192L137.164 222M124 192V224" stroke="#FF5C00" stroke-width="8" stroke-linecap="round"/>
<g style="mix-blend-mode:multiply">
<path d="M96.6663 53.333C103.333 149.166 44.7219 129.722 20.833 120L49.9997 25.833L79.9997 53.333H96.6663Z" fill="#FFDBB9"/>
</g>
<g style="mix-blend-mode:multiply">
<path d="M110.833 53.333C104.167 149.166 162.778 129.722 186.667 120L157.5 25.833L127.5 53.333H110.833Z" fill="#FFDBB9"/>
</g>
<path d="M100 121.667H106.667" stroke="#FF5C00" stroke-width="8" stroke-linecap="round"/>
<circle cx="70" cy="106.667" r="10" fill="#FF5C00"/>
<circle cx="136.667" cy="106.667" r="10" fill="#FF5C00"/>
</svg>
