<svg width="250" height="250" viewBox="0 0 250 250" fill="none" xmlns="http://www.w3.org/2000/svg">
<g clip-path="url(#clip0_7_2428)">
<path d="M125 -114L138.882 -102.84C153.761 -90.8787 171.753 -83.4262 190.732 -81.3633L208.439 -79.4386L210.363 -61.7316C212.426 -42.7526 219.879 -24.7606 231.84 -9.8817L243 4.00001L231.84 17.8817C219.879 32.7606 212.426 50.7526 210.363 69.7316L208.439 87.4386L190.732 89.3633C171.753 91.4262 153.761 98.8787 138.882 110.84L125 122L111.118 110.84C96.2394 98.8787 78.2475 91.4262 59.2684 89.3633L41.5614 87.4386L39.6367 69.7316C37.5738 50.7526 30.1213 32.7606 18.1598 17.8817L7 4.00001L18.1598 -9.88171C30.1213 -24.7606 37.5738 -42.7525 39.6367 -61.7315L41.5614 -79.4386L59.2684 -81.3633C78.2475 -83.4262 96.2394 -90.8787 111.118 -102.84L125 -114Z" fill="#FFDBB9"/>
<path fill-rule="evenodd" clip-rule="evenodd" d="M125 162C127.209 162 129 163.791 129 166V172.274C130.062 172.42 131.105 172.624 132.127 172.882L134.491 167.075C135.324 165.029 137.658 164.045 139.704 164.878C141.75 165.711 142.733 168.045 141.9 170.091L139.536 175.9C140.559 176.494 141.543 177.149 142.483 177.86L146.92 173.423C148.482 171.861 151.015 171.861 152.577 173.423C154.139 174.985 154.139 177.517 152.577 179.079L148.139 183.517C148.726 184.292 149.275 185.098 149.783 185.932L155.541 183.443C157.569 182.567 159.923 183.5 160.8 185.528C161.676 187.556 160.743 189.91 158.715 190.787L152.959 193.274C153.294 194.486 153.551 195.73 153.726 197H160C162.209 197 164 198.791 164 201C164 203.209 162.209 205 160 205H153.726C153.551 206.27 153.294 207.514 152.96 208.725L158.715 211.212C160.743 212.089 161.676 214.443 160.8 216.471C159.923 218.499 157.569 219.432 155.541 218.556L149.783 216.068C149.275 216.901 148.727 217.707 148.14 218.483L152.577 222.92C154.139 224.482 154.139 227.015 152.577 228.577C151.015 230.139 148.482 230.139 146.92 228.577L142.483 224.14C141.543 224.851 140.559 225.505 139.536 226.1L141.901 231.909C142.734 233.955 141.75 236.289 139.704 237.122C137.658 237.955 135.324 236.971 134.491 234.925L132.127 229.118C131.105 229.376 130.062 229.58 129 229.726V236C129 238.209 127.209 240 125 240C122.791 240 121 238.209 121 236V229.726C119.938 229.58 118.895 229.376 117.873 229.118L115.509 234.925C114.676 236.971 112.342 237.955 110.296 237.122C108.249 236.289 107.266 233.955 108.099 231.909L110.464 226.099C109.44 225.505 108.456 224.85 107.517 224.139L103.079 228.577C101.517 230.139 98.9846 230.139 97.4225 228.577C95.8605 227.015 95.8605 224.482 97.4225 222.92L101.86 218.483C101.273 217.707 100.725 216.901 100.217 216.068L94.4584 218.556C92.4305 219.432 90.0762 218.499 89.1998 216.471C88.3234 214.443 89.2569 212.089 91.2848 211.212L97.0403 208.725C96.7062 207.513 96.4488 206.27 96.2736 205H90C87.7909 205 86 203.209 86 201C86 198.791 87.7909 197 90 197H96.2736C96.4488 195.73 96.7063 194.486 97.0405 193.274L91.2849 190.787C89.257 189.91 88.3235 187.556 89.1999 185.528C90.0763 183.5 92.4306 182.567 94.4585 183.443L100.217 185.932C100.725 185.098 101.274 184.293 101.86 183.517L97.4226 179.079C95.8605 177.517 95.8605 174.985 97.4226 173.423C98.9847 171.861 101.517 171.861 103.079 173.423L107.517 177.86C108.456 177.15 109.44 176.495 110.464 175.901L108.099 170.091C107.266 168.045 108.25 165.711 110.296 164.878C112.342 164.045 114.676 165.029 115.509 167.075L117.873 172.882C118.895 172.624 119.938 172.42 121 172.274V166C121 163.791 122.791 162 125 162Z" fill="#FF5C00"/>
<path fill-rule="evenodd" clip-rule="evenodd" d="M123 197C123 202.523 118.523 207 113 207C107.477 207 103 202.523 103 197C103 191.477 107.477 187 113 187C118.523 187 123 191.477 123 197ZM120 197C120 199.209 118.209 201 116 201C113.791 201 112 199.209 112 197C112 194.791 113.791 193 116 193C118.209 193 120 194.791 120 197ZM147 197C147 202.523 142.523 207 137 207C131.477 207 127 202.523 127 197C127 191.477 131.477 187 137 187C142.523 187 147 191.477 147 197ZM140 200C140 202.209 138.209 204 136 204C133.791 204 132 202.209 132 200C132 197.791 133.791 196 136 196C138.209 196 140 197.791 140 200Z" fill="white"/>
<path fill-rule="evenodd" clip-rule="evenodd" d="M124.21 -77.1002L125 -77.7354L125.79 -77.1002C140.804 -65.0305 158.752 -57.2117 177.763 -54.4194L159.644 -36.3012C146.984 -38.5239 135.06 -43.9124 125 -52C114.94 -43.9124 103.016 -38.5239 90.3556 -36.3012L72.2375 -54.4194C91.2481 -57.2117 109.196 -65.0305 124.21 -77.1002ZM125 -42.0323C133.469 -36.2002 142.923 -31.9728 152.889 -29.5461L126.877 -3.53341C126.317 -3.83124 125.678 -4 125 -4C124.322 -4 123.683 -3.83122 123.123 -3.53339L97.1108 -29.5461C107.076 -31.9728 116.531 -36.2002 125 -42.0323ZM121 13.6568L97.1108 37.5461C105.535 39.5973 113.593 42.9352 121 47.4413V13.6568ZM121 56.9946C111.839 50.5698 101.376 46.236 90.3556 44.3012L72.2375 62.4194C89.9113 65.0154 106.667 71.9558 121 82.6175V56.9946ZM129 82.6175V56.9945C138.161 50.5697 148.624 46.236 159.644 44.3012L177.763 62.4194C160.089 65.0154 143.333 71.9558 129 82.6175ZM129 92.7843L130.802 91.3353C145.681 79.3738 163.673 71.9213 182.652 69.8583L184.952 69.6084L199.953 84.6102C201.515 86.1723 204.048 86.1723 205.61 84.6102C207.172 83.0481 207.172 80.5154 205.61 78.9533L190.608 63.9516L190.858 61.6524C192.921 42.6734 200.374 24.6814 212.335 9.80249L213.784 8H235C237.209 8 239 6.20914 239 4C239 1.79086 237.209 0 235 0H213.784L212.335 -1.80249C200.374 -16.6814 192.921 -34.6733 190.858 -53.6524L190.608 -55.9516L205.61 -70.9533C207.172 -72.5154 207.172 -75.0481 205.61 -76.6102C204.048 -78.1723 201.515 -78.1723 199.953 -76.6102L184.952 -61.6084L182.652 -61.8583C163.673 -63.9213 145.681 -71.3738 130.802 -83.3352L125 -88L119.197 -83.3352C104.319 -71.3738 86.3267 -63.9213 67.3476 -61.8583L65.0484 -61.6084L50.0467 -76.6102C48.4846 -78.1723 45.9519 -78.1723 44.3898 -76.6102C42.8277 -75.0481 42.8277 -72.5154 44.3898 -70.9533L59.3916 -55.9516L59.1417 -53.6523C57.0787 -34.6733 49.6262 -16.6814 37.6648 -1.80251L36.2157 -7.62939e-06H15C12.7908 -7.62939e-06 11 1.79085 11 3.99999C11 6.20913 12.7908 7.99999 15 7.99999H36.2157L37.6647 9.80251C49.6262 24.6814 57.0787 42.6733 59.1416 61.6523L59.3916 63.9516L44.3898 78.9533C42.8277 80.5154 42.8277 83.0481 44.3898 84.6102C45.9519 86.1723 48.4846 86.1723 50.0467 84.6102L65.0484 69.6084L67.3476 69.8583C86.3266 71.9213 104.319 79.3738 119.197 91.3353L121 92.7843V172C121 174.209 122.791 176 125 176C127.209 176 129 174.209 129 172V92.7843ZM129 47.4413V13.6569L152.889 37.5461C144.465 39.5973 136.407 42.9352 129 47.4413ZM66.5806 -48.7625L84.6987 -30.6444C82.7639 -19.6236 78.4302 -9.16103 72.0054 -7.62939e-06H46.3825C57.0442 -14.3329 63.9846 -31.0887 66.5806 -48.7625ZM91.4539 -23.8892C89.4027 -15.4654 86.0648 -7.40702 81.5587 -7.62939e-06H115.343L91.4539 -23.8892ZM46.3825 7.99999H72.0054C78.4302 17.161 82.7639 27.6235 84.6987 38.6444L66.5806 56.7625C63.9846 39.0887 57.0442 22.3329 46.3825 7.99999ZM81.5587 7.99999C86.0648 15.407 89.4027 23.4654 91.4539 31.8892L115.343 7.99999H81.5587ZM183.419 56.7625L165.301 38.6444C167.236 27.6235 171.57 17.161 177.995 8H203.617C192.956 22.3329 186.015 39.0887 183.419 56.7625ZM158.546 31.8892C160.597 23.4654 163.935 15.407 168.441 8H134.657L158.546 31.8892ZM134.657 0H168.441C163.935 -7.40701 160.597 -15.4654 158.546 -23.8892L134.657 0ZM165.301 -30.6444C167.236 -19.6235 171.57 -9.16102 177.995 0H203.617C192.956 -14.3329 186.015 -31.0887 183.419 -48.7625L165.301 -30.6444Z" fill="#FF5C00"/>
</g>
<defs>
<clipPath id="clip0_7_2428">
<rect width="228" height="250" fill="white" transform="translate(11)"/>
</clipPath>
</defs>
</svg>
