<svg width="250" height="250" viewBox="0 0 250 250" fill="none" xmlns="http://www.w3.org/2000/svg">
<ellipse cx="124" cy="200.78" rx="113.441" ry="46.7797" fill="#FF5C00"/>
<path d="M233.441 181.22C233.441 186.271 230.976 191.454 225.734 196.565C220.479 201.688 212.667 206.486 202.69 210.601C182.753 218.822 154.934 224 124 224C93.0658 224 65.247 218.822 45.3102 210.601C35.3326 206.486 27.5211 201.688 22.2664 196.565C17.0245 191.454 14.5593 186.271 14.5593 181.22C14.5593 176.17 17.0245 170.986 22.2664 165.876C27.5211 160.752 35.3326 155.955 45.3102 151.84C65.247 143.619 93.0658 138.441 124 138.441C154.934 138.441 182.753 143.619 202.69 151.84C212.667 155.955 220.479 160.752 225.734 165.876C230.976 170.986 233.441 176.17 233.441 181.22Z" fill="white" stroke="#FF5C00" stroke-width="8"/>
<path d="M96.6477 45.9844C105.471 18.1607 143.133 18.0496 152.045 45.7753C166.682 91.3109 181.213 141.062 183.892 166.252C184.173 168.886 182.635 171.437 179.858 172.583C160.801 180.445 146.077 183.068 124 183.068C101.923 183.068 87.199 180.445 68.1418 172.583C65.3708 171.44 63.8783 168.902 64.2035 166.323C67.1806 142.711 81.9632 92.2929 96.6477 45.9844Z" fill="white" stroke="#FF5C00" stroke-width="8"/>
<path d="M68.5 145C68.5 145 88 156 124.5 156C161 156 180.5 145 180.5 145" stroke="#FF5C00" stroke-width="8"/>
<g style="mix-blend-mode:darken">
<path d="M107 95.5C114.6 129.9 213.5 201.5 233.5 187C243.5 167 183.5 147 183.5 147V167L171.5 107.5C159.167 103.833 127 95.5 107 95.5Z" fill="#FFDBB9"/>
</g>
<path d="M108.763 91.9621C121.915 98.6869 166.273 106.214 197.572 110.899C208.468 112.53 214.967 99.6967 207.214 91.8693C184.437 68.8738 151.393 36.552 140.058 30.7564L108.763 91.9621Z" fill="white"/>
<path d="M108.763 91.9621C121.915 98.6869 166.273 106.214 197.572 110.899C208.468 112.53 214.967 99.6967 207.214 91.8693C184.437 68.8738 151.393 36.552 140.058 30.7564" stroke="#FF5C00" stroke-width="8" stroke-linecap="round"/>
<path d="M215 5L220.132 25.8024L234 33.5L220.132 41.1976L215 62L209.868 41.1976L196 33.5L209.868 25.8024L215 5Z" fill="#FF5C00" stroke="#FF5C00" stroke-width="7" stroke-linejoin="round"/>
<path d="M28 78L30.971 90.0435L39 94.5L30.971 98.9565L28 111L25.029 98.9565L17 94.5L25.029 90.0435L28 78Z" fill="#FF5C00" stroke="#FF5C00" stroke-width="7" stroke-linejoin="round"/>
</svg>
