<svg width="253" height="250" viewBox="0 0 253 250" fill="none" xmlns="http://www.w3.org/2000/svg">
<mask id="path-1-inside-1_7_2448" fill="white">
<path fill-rule="evenodd" clip-rule="evenodd" d="M69.5851 43H39.1866L0.499329 94.5183C19.7083 99.7945 33.8209 117.383 33.8209 138.268C33.8209 141.576 33.4668 144.801 32.7944 147.908H37.4942C44.7202 132.438 60.418 121.719 78.6194 121.719C96.8208 121.719 112.519 132.438 119.745 147.908H128.226C135.452 132.438 151.149 121.719 169.351 121.719C187.552 121.719 203.25 132.438 210.476 147.908H215.176C214.504 144.801 214.15 141.576 214.15 138.268C214.15 115.717 230.604 97.009 252.162 93.4952L208.784 43H178.415C167.886 62.0695 147.465 75 124 75C100.535 75 80.1144 62.0695 69.5851 43Z"/>
</mask>
<path fill-rule="evenodd" clip-rule="evenodd" d="M69.5851 43H39.1866L0.499329 94.5183C19.7083 99.7945 33.8209 117.383 33.8209 138.268C33.8209 141.576 33.4668 144.801 32.7944 147.908H37.4942C44.7202 132.438 60.418 121.719 78.6194 121.719C96.8208 121.719 112.519 132.438 119.745 147.908H128.226C135.452 132.438 151.149 121.719 169.351 121.719C187.552 121.719 203.25 132.438 210.476 147.908H215.176C214.504 144.801 214.15 141.576 214.15 138.268C214.15 115.717 230.604 97.009 252.162 93.4952L208.784 43H178.415C167.886 62.0695 147.465 75 124 75C100.535 75 80.1144 62.0695 69.5851 43Z" fill="white"/>
<path d="M39.1866 43V35H35.1896L32.7895 38.1961L39.1866 43ZM69.5851 43L76.5885 39.1331L74.3064 35H69.5851V43ZM0.499329 94.5183L-5.89778 89.7144L-12.9592 99.1178L-1.61961 102.233L0.499329 94.5183ZM32.7944 147.908L24.9754 146.216L22.878 155.908H32.7944V147.908ZM37.4942 147.908V155.908H42.5871L44.7425 151.294L37.4942 147.908ZM119.745 147.908L112.496 151.294L114.652 155.908H119.745V147.908ZM128.226 147.908V155.908H133.319L135.474 151.294L128.226 147.908ZM210.476 147.908L203.228 151.294L205.383 155.908H210.476V147.908ZM215.176 147.908V155.908H225.092L222.995 146.216L215.176 147.908ZM252.162 93.4952L253.449 101.391L267.521 99.0974L258.23 88.2822L252.162 93.4952ZM208.784 43L214.852 37.787L212.458 35H208.784V43ZM178.415 43V35H173.694L171.412 39.1331L178.415 43ZM39.1866 51H69.5851V35H39.1866V51ZM6.89643 99.3221L45.5837 47.8039L32.7895 38.1961L-5.89778 89.7144L6.89643 99.3221ZM-1.61961 102.233C14.2054 106.579 25.8209 121.077 25.8209 138.268H41.8209C41.8209 113.689 25.2112 93.0097 2.61826 86.804L-1.61961 102.233ZM25.8209 138.268C25.8209 141.004 25.5282 143.662 24.9754 146.216L40.6134 149.6C41.4054 145.941 41.8209 142.148 41.8209 138.268H25.8209ZM37.4942 139.908H32.7944V155.908H37.4942V139.908ZM78.6194 113.719C57.1961 113.719 38.7377 126.343 30.2459 144.523L44.7425 151.294C50.7027 138.534 63.6398 129.719 78.6194 129.719V113.719ZM126.993 144.523C118.501 126.343 100.043 113.719 78.6194 113.719V129.719C93.5989 129.719 106.536 138.534 112.496 151.294L126.993 144.523ZM128.226 139.908H119.745V155.908H128.226V139.908ZM169.351 113.719C147.928 113.719 129.469 126.343 120.977 144.523L135.474 151.294C141.434 138.534 154.371 129.719 169.351 129.719V113.719ZM217.724 144.523C209.233 126.343 190.774 113.719 169.351 113.719V129.719C184.33 129.719 197.268 138.534 203.228 151.294L217.724 144.523ZM215.176 139.908H210.476V155.908H215.176V139.908ZM206.15 138.268C206.15 142.148 206.565 145.941 207.357 149.6L222.995 146.216C222.442 143.662 222.15 141.004 222.15 138.268H206.15ZM250.875 85.5994C225.509 89.7339 206.15 111.732 206.15 138.268H222.15C222.15 119.701 235.699 104.284 253.449 101.391L250.875 85.5994ZM202.716 48.213L246.093 98.7082L258.23 88.2822L214.852 37.787L202.716 48.213ZM178.415 51H208.784V35H178.415V51ZM124 83C150.471 83 173.527 68.4039 185.418 46.8669L171.412 39.1331C162.245 55.7351 144.459 67 124 67V83ZM62.5818 46.8669C74.4735 68.4039 97.5291 83 124 83V67C103.541 67 85.7553 55.7351 76.5885 39.1331L62.5818 46.8669Z" fill="#FF5C00" mask="url(#path-1-inside-1_7_2448)"/>
<path d="M67.4999 46.0001L37.4999 134" stroke="#FF5C00" stroke-width="8"/>
<path d="M182.5 47.5001L209.5 131" stroke="#FF5C00" stroke-width="8"/>
<path fill-rule="evenodd" clip-rule="evenodd" d="M101.939 38.9866C101.408 37.6916 100.195 36.7622 98.795 36.7622C97.0478 36.7622 95.6313 38.1786 95.6313 39.9258V114.085C95.6313 117.647 97.5297 120.93 100.525 122.857C104.249 125.252 109.246 128.693 112.36 131.747C116.528 135.835 120.143 143.929 122.192 149.186C122.793 150.725 125.183 150.726 125.783 149.186C127.893 143.771 131.646 135.322 135.893 131.18C138.895 128.252 143.627 125.083 147.246 122.84C150.347 120.919 152.338 117.571 152.338 113.923V39.9258C152.338 38.1786 150.922 36.7622 149.175 36.7622C147.775 36.7622 146.562 37.6916 146.031 38.9866C142.473 47.6632 133.943 53.7743 123.985 53.7743C114.027 53.7743 105.496 47.6632 101.939 38.9866Z" fill="#FFDBB9"/>
<path d="M112.36 131.747L109.559 134.602L109.559 134.602L112.36 131.747ZM122.192 149.186L118.466 150.639L118.466 150.639L122.192 149.186ZM125.783 149.186L122.056 147.734H122.056L125.783 149.186ZM135.893 131.18L138.686 134.043L135.893 131.18ZM146.031 38.9866L149.732 40.504L146.031 38.9866ZM147.246 122.84L145.139 119.44L147.246 122.84ZM100.525 122.857L98.3616 126.221L100.525 122.857ZM99.6313 114.085V39.9258H91.6313V114.085H99.6313ZM115.161 128.891C111.727 125.522 106.417 121.891 102.689 119.493L98.3616 126.221C102.08 128.613 106.766 131.863 109.559 134.602L115.161 128.891ZM125.919 147.733C124.863 145.024 123.386 141.536 121.61 138.164C119.867 134.855 117.691 131.373 115.161 128.891L109.559 134.602C111.197 136.209 112.913 138.818 114.531 141.892C116.117 144.903 117.472 148.09 118.466 150.639L125.919 147.733ZM122.056 147.734C122.479 146.648 123.458 146.34 123.988 146.34C124.518 146.34 125.496 146.648 125.919 147.733L118.466 150.639C119.489 153.262 121.962 154.34 123.987 154.34C126.013 154.341 128.487 153.263 129.51 150.638L122.056 147.734ZM133.101 128.316C130.518 130.835 128.284 134.433 126.494 137.849C124.667 141.335 123.141 144.949 122.056 147.734L129.51 150.638C130.535 148.008 131.94 144.691 133.58 141.562C135.255 138.365 137.021 135.667 138.686 134.043L133.101 128.316ZM145.139 119.44C141.505 121.692 136.443 125.056 133.101 128.316L138.686 134.043C141.347 131.448 145.748 128.474 149.352 126.241L145.139 119.44ZM148.338 39.9258V113.923H156.338V39.9258H148.338ZM142.33 37.4692C139.367 44.6961 132.264 49.7743 123.985 49.7743V57.7743C135.622 57.7743 145.58 50.6302 149.732 40.504L142.33 37.4692ZM123.985 49.7743C115.706 49.7743 108.603 44.6961 105.64 37.4692L98.238 40.504C102.39 50.6302 112.348 57.7743 123.985 57.7743V49.7743ZM149.175 32.7622C145.929 32.7622 143.387 34.8898 142.33 37.4692L149.732 40.504C149.722 40.5273 149.697 40.5749 149.622 40.6291C149.538 40.6902 149.381 40.7622 149.175 40.7622V32.7622ZM156.338 39.9258C156.338 35.9695 153.131 32.7622 149.175 32.7622V40.7622C148.713 40.7622 148.338 40.3878 148.338 39.9258H156.338ZM149.352 126.241C153.548 123.641 156.338 119.051 156.338 113.923H148.338C148.338 116.092 147.146 118.197 145.139 119.44L149.352 126.241ZM91.6313 114.085C91.6313 119.088 94.2911 123.603 98.3616 126.221L102.689 119.493C100.768 118.257 99.6313 116.205 99.6313 114.085H91.6313ZM98.795 40.7622C98.5891 40.7622 98.4319 40.6902 98.3475 40.6291C98.2726 40.5749 98.2476 40.5273 98.238 40.504L105.64 37.4692C104.583 34.8898 102.041 32.7622 98.795 32.7622V40.7622ZM98.795 32.7622C94.8386 32.7622 91.6313 35.9695 91.6313 39.9258H99.6313C99.6313 40.3878 99.2569 40.7622 98.795 40.7622V32.7622Z" fill="#FF5C00"/>
<path d="M119.666 82.6584C119.666 82.6584 121.38 83.124 123.856 83.124C126.333 83.124 128.047 82.6584 128.047 82.6584" stroke="#FF5C00" stroke-width="8" stroke-linecap="round"/>
<path fill-rule="evenodd" clip-rule="evenodd" d="M144.344 78.3125C146.915 78.3125 149 76.2278 149 73.6562C149 71.0847 146.915 69 144.344 69C141.772 69 139.688 71.0847 139.688 73.6562C139.688 76.2278 141.772 78.3125 144.344 78.3125ZM103.99 78.7781C106.561 78.7781 108.646 76.6934 108.646 74.1219C108.646 71.5503 106.561 69.4656 103.99 69.4656C101.418 69.4656 99.3335 71.5503 99.3335 74.1219C99.3335 76.6934 101.418 78.7781 103.99 78.7781Z" fill="#FF5C00"/>
<ellipse cx="126" cy="229" rx="113" ry="21" fill="#FF5C00"/>
</svg>
